HIERARCHY
ROOT newVegas:Hips
{
	OFFSET 0.000000 96.479958 0.000000
	CHANNELS 6 Xposition Yposition Zposition Xrotation Yrotation Zrotation
	JOINT newVegas:Pelvis
	{
		OFFSET 0.000000 0.000000 0.000000
		CHANNELS 3 Xrotation Yrotation Zrotation
		JOINT newVegas:LeftUpLeg
		{
			OFFSET 18.735201 -5.666702 -4.541200
			CHANNELS 3 Xrotation Yrotation Zrotation
			JOINT newVegas:LeftLeg
			{
				OFFSET -0.021200 -31.938179 0.493100
				CHANNELS 3 Xrotation Yrotation Zrotation
				JOINT newVegas:LeftFoot
				{
					OFFSET 0.021200 -31.938179 -4.336299
					CHANNELS 3 Xrotation Yrotation Zrotation
					JOINT newVegas:LeftToeBase
					{
						OFFSET 0.943001 -26.722000 15.023500
						CHANNELS 3 Xrotation Yrotation Zrotation
						End Site
						{
							OFFSET 0.000000 30.670183 0.000000
						}
					}
				}
				JOINT newVegas:Left_PantLeg
				{
					OFFSET 0.663870 -9.044666 -1.108900
					CHANNELS 3 Xrotation Yrotation Zrotation
					End Site
					{
						OFFSET 1.415995 20.635357 0.000000
					}
				}
			}
		}
		JOINT newVegas:RightUpLeg
		{
			OFFSET -18.735201 -5.666702 -4.541200
			CHANNELS 3 Xrotation Yrotation Zrotation
			JOINT newVegas:RightLeg
			{
				OFFSET 0.018946 -31.938133 0.493100
				CHANNELS 3 Xrotation Yrotation Zrotation
				JOINT newVegas:RightFoot
				{
					OFFSET -0.018946 -31.938126 -4.336299
					CHANNELS 3 Xrotation Yrotation Zrotation
					JOINT newVegas:RightToeBase
					{
						OFFSET -0.943001 -26.722004 15.023500
						CHANNELS 3 Xrotation Yrotation Zrotation
						End Site
						{
							OFFSET 0.000000 30.670187 0.000000
						}
					}
				}
				JOINT newVegas:Right_PantLeg
				{
					OFFSET -0.661674 -9.044716 -1.108900
					CHANNELS 3 Xrotation Yrotation Zrotation
					End Site
					{
						OFFSET -1.415958 20.635269 0.000000
					}
				}
			}
		}
	}
	JOINT newVegas:Spine
	{
		OFFSET 0.000000 10.199997 -0.299500
		CHANNELS 3 Xrotation Yrotation Zrotation
		JOINT newVegas:Spine1
		{
			OFFSET 0.000000 11.900002 -1.516600
			CHANNELS 3 Xrotation Yrotation Zrotation
			JOINT newVegas:Spine2
			{
				OFFSET 0.000000 13.600006 -2.842500
				CHANNELS 3 Xrotation Yrotation Zrotation
				JOINT newVegas:Neck
				{
					OFFSET 0.000000 9.624100 -2.890100
					CHANNELS 3 Xrotation Yrotation Zrotation
					JOINT newVegas:Head
					{
						OFFSET 0.000000 14.068802 -1.351900
						CHANNELS 3 Xrotation Yrotation Zrotation
						JOINT newVegas:Hair_Back
						{
							OFFSET 0.000000 3.231903 -17.524799
							CHANNELS 3 Xrotation Yrotation Zrotation
							End Site
							{
								OFFSET 0.000000 19.849884 0.000000
							}
						}
						JOINT newVegas:Hair_Front
						{
							OFFSET 0.000000 31.260406 4.573800
							CHANNELS 3 Xrotation Yrotation Zrotation
							JOINT newVegas:Hair_Front1
							{
								OFFSET 0.000000 2.284103 11.993300
								CHANNELS 3 Xrotation Yrotation Zrotation
								JOINT newVegas:Hair_Front2
								{
									OFFSET 0.000000 2.284103 11.993300
									CHANNELS 3 Xrotation Yrotation Zrotation
									End Site
									{
										OFFSET 0.000000 12.208862 0.000000
									}
								}
							}
						}
						JOINT newVegas:Jowel
						{
							OFFSET 0.000000 -7.458206 6.864100
							CHANNELS 3 Xrotation Yrotation Zrotation
							End Site
							{
								OFFSET 0.000000 19.849884 0.000000
							}
						}
					}
				}
				JOINT newVegas:LeftShoulder
				{
					OFFSET 15.263000 10.923401 -0.547700
					CHANNELS 3 Xrotation Yrotation Zrotation
					JOINT newVegas:LeftArm
					{
						OFFSET 25.438599 -2.830597 -13.032500
						CHANNELS 3 Xrotation Yrotation Zrotation
						JOINT newVegas:LeftForeArm
						{
							OFFSET 29.960503 0.000000 0.000000
							CHANNELS 3 Xrotation Yrotation Zrotation
							JOINT newVegas:LeftHand
							{
								OFFSET 27.849251 0.000000 0.000000
								CHANNELS 3 Xrotation Yrotation Zrotation
								JOINT newVegas:LeftHandThumb1
								{
									OFFSET 4.487587 -3.305161 6.305391
									CHANNELS 3 Xrotation Yrotation Zrotation
									JOINT newVegas:LeftHandThumb2
									{
										OFFSET 5.480453 -3.164139 3.164143
										CHANNELS 3 Xrotation Yrotation Zrotation
										JOINT newVegas:LeftHandThumb3
										{
											OFFSET 5.159721 -2.978973 2.978967
											CHANNELS 3 Xrotation Yrotation Zrotation
											End Site
											{
												OFFSET 2.494507 5.926697 1.738678
											}
										}
									}
								}
								JOINT newVegas:LeftHandIndex1
								{
									OFFSET 18.578728 -0.527832 5.208049
									CHANNELS 3 Xrotation Yrotation Zrotation
									JOINT newVegas:LeftHandIndex2
									{
										OFFSET 3.192009 0.000000 0.000000
										CHANNELS 3 Xrotation Yrotation Zrotation
										JOINT newVegas:LeftHandIndex3
										{
											OFFSET 3.835129 0.000000 0.000000
											CHANNELS 3 Xrotation Yrotation Zrotation
											End Site
											{
												OFFSET -0.034599 3.816971 0.371180
											}
										}
									}
								}
								JOINT newVegas:LeftHandMiddle1
								{
									OFFSET 18.476105 0.000000 0.000000
									CHANNELS 3 Xrotation Yrotation Zrotation
									JOINT newVegas:LeftHandMiddle2
									{
										OFFSET 3.324875 0.000000 0.000000
										CHANNELS 3 Xrotation Yrotation Zrotation
										JOINT newVegas:LeftHandMiddle3
										{
											OFFSET 4.596550 0.000000 0.000000
											CHANNELS 3 Xrotation Yrotation Zrotation
											End Site
											{
												OFFSET 0.057701 4.578827 0.399218
											}
										}
									}
								}
								JOINT newVegas:LeftHandRing1
								{
									OFFSET 17.732719 0.121887 -4.201567
									CHANNELS 3 Xrotation Yrotation Zrotation
									JOINT newVegas:LeftHandRing2
									{
										OFFSET 2.733170 0.000000 0.000000
										CHANNELS 3 Xrotation Yrotation Zrotation
										JOINT newVegas:LeftHandRing3
										{
											OFFSET 3.178268 0.000000 0.000000
											CHANNELS 3 Xrotation Yrotation Zrotation
											End Site
											{
												OFFSET 0.119102 3.170624 0.185394
											}
										}
									}
								}
								JOINT newVegas:LeftHandPinky1
								{
									OFFSET 15.989624 -0.606689 -7.535461
									CHANNELS 3 Xrotation Yrotation Zrotation
									JOINT newVegas:LeftHandPinky2
									{
										OFFSET 2.538986 0.000000 0.000000
										CHANNELS 3 Xrotation Yrotation Zrotation
										JOINT newVegas:LeftHandPinky3
										{
											OFFSET 2.593102 0.000000 0.000000
											CHANNELS 3 Xrotation Yrotation Zrotation
											End Site
											{
												OFFSET -0.150902 2.584198 0.152708
											}
										}
									}
								}
							}
							JOINT newVegas:Left_Sleeve
							{
								OFFSET 0.267448 -0.649796 0.577675
								CHANNELS 3 Xrotation Yrotation Zrotation
								End Site
								{
									OFFSET 0.000000 15.991241 0.000000
								}
							}
							JOINT newVegas:Left_CapeC
							{
								OFFSET 15.715958 -8.608795 -6.935905
								CHANNELS 3 Xrotation Yrotation Zrotation
								JOINT newVegas:Left_CapeC1
								{
									OFFSET 0.000000 -8.688499 0.000000
									CHANNELS 3 Xrotation Yrotation Zrotation
									End Site
									{
										OFFSET 0.000000 8.688499 0.000000
									}
								}
							}
						}
						JOINT newVegas:Left_CapeB
						{
							OFFSET 26.118385 -8.608795 -7.079235
							CHANNELS 3 Xrotation Yrotation Zrotation
							JOINT newVegas:Left_CapeB1
							{
								OFFSET 0.000000 -8.688499 0.000000
								CHANNELS 3 Xrotation Yrotation Zrotation
								End Site
								{
									OFFSET 0.000000 8.688499 0.000000
								}
							}
						}
						JOINT newVegas:Left_CapeA
						{
							OFFSET 5.115639 -8.608795 -10.395809
							CHANNELS 3 Xrotation Yrotation Zrotation
							JOINT newVegas:Left_CapeA1
							{
								OFFSET 0.000000 -8.688499 0.000000
								CHANNELS 3 Xrotation Yrotation Zrotation
								End Site
								{
									OFFSET 0.000000 8.688499 0.000000
								}
							}
						}
					}
				}
				JOINT newVegas:RightShoulder
				{
					OFFSET -15.263000 10.923401 -0.547700
					CHANNELS 3 Xrotation Yrotation Zrotation
					JOINT newVegas:RightArm
					{
						OFFSET -25.438599 -2.830597 -13.032500
						CHANNELS 3 Xrotation Yrotation Zrotation
						JOINT newVegas:RightForeArm
						{
							OFFSET -29.960503 0.000000 0.000000
							CHANNELS 3 Xrotation Yrotation Zrotation
							JOINT newVegas:RightHand
							{
								OFFSET -27.849251 0.000000 0.000000
								CHANNELS 3 Xrotation Yrotation Zrotation
								JOINT newVegas:RightHandThumb1
								{
									OFFSET -4.487587 -3.305161 6.305391
									CHANNELS 3 Xrotation Yrotation Zrotation
									JOINT newVegas:RightHandThumb2
									{
										OFFSET -5.480453 -3.164139 3.164143
										CHANNELS 3 Xrotation Yrotation Zrotation
										JOINT newVegas:RightHandThumb3
										{
											OFFSET -5.159721 -2.978973 2.978967
											CHANNELS 3 Xrotation Yrotation Zrotation
											End Site
											{
												OFFSET -2.494507 5.926697 1.738678
											}
										}
									}
								}
								JOINT newVegas:RightHandIndex1
								{
									OFFSET -18.578728 -0.527832 5.208049
									CHANNELS 3 Xrotation Yrotation Zrotation
									JOINT newVegas:RightHandIndex2
									{
										OFFSET -3.192009 0.000000 0.000000
										CHANNELS 3 Xrotation Yrotation Zrotation
										JOINT newVegas:RightHandIndex3
										{
											OFFSET -3.835129 0.000000 0.000000
											CHANNELS 3 Xrotation Yrotation Zrotation
											End Site
											{
												OFFSET 0.034599 3.816971 0.371180
											}
										}
									}
								}
								JOINT newVegas:RightHandMiddle1
								{
									OFFSET -18.476105 0.000000 0.000000
									CHANNELS 3 Xrotation Yrotation Zrotation
									JOINT newVegas:RightHandMiddle2
									{
										OFFSET -3.324875 0.000000 0.000000
										CHANNELS 3 Xrotation Yrotation Zrotation
										JOINT newVegas:RightHandMiddle3
										{
											OFFSET -4.596550 0.000000 0.000000
											CHANNELS 3 Xrotation Yrotation Zrotation
											End Site
											{
												OFFSET -0.057701 4.578827 0.399218
											}
										}
									}
								}
								JOINT newVegas:RightHandRing1
								{
									OFFSET -17.732719 0.121887 -4.201567
									CHANNELS 3 Xrotation Yrotation Zrotation
									JOINT newVegas:RightHandRing2
									{
										OFFSET -2.733170 0.000000 0.000000
										CHANNELS 3 Xrotation Yrotation Zrotation
										JOINT newVegas:RightHandRing3
										{
											OFFSET -3.178268 0.000000 0.000000
											CHANNELS 3 Xrotation Yrotation Zrotation
											End Site
											{
												OFFSET -0.119102 3.170624 0.185394
											}
										}
									}
								}
								JOINT newVegas:RightHandPinky1
								{
									OFFSET -15.989624 -0.606689 -7.535461
									CHANNELS 3 Xrotation Yrotation Zrotation
									JOINT newVegas:RightHandPinky2
									{
										OFFSET -2.538986 0.000000 0.000000
										CHANNELS 3 Xrotation Yrotation Zrotation
										JOINT newVegas:RightHandPinky3
										{
											OFFSET -2.593102 0.000000 0.000000
											CHANNELS 3 Xrotation Yrotation Zrotation
											End Site
											{
												OFFSET 0.150902 2.584198 0.152708
											}
										}
									}
								}
							}
							JOINT newVegas:Right_CapeC
							{
								OFFSET -15.715958 -8.608795 -6.935905
								CHANNELS 3 Xrotation Yrotation Zrotation
								JOINT newVegas:Right_CapeC1
								{
									OFFSET 0.000000 -8.688499 0.000000
									CHANNELS 3 Xrotation Yrotation Zrotation
									End Site
									{
										OFFSET 0.000000 8.688499 0.000000
									}
								}
							}
							JOINT newVegas:Right_Sleeve
							{
								OFFSET -0.267448 -0.649994 0.577675
								CHANNELS 3 Xrotation Yrotation Zrotation
								End Site
								{
									OFFSET 0.000000 15.991302 0.000000
								}
							}
						}
						JOINT newVegas:Right_CapeA
						{
							OFFSET -5.115540 -8.608795 -10.395824
							CHANNELS 3 Xrotation Yrotation Zrotation
							JOINT newVegas:Right_CapeA1
							{
								OFFSET 0.000000 -8.688499 0.000000
								CHANNELS 3 Xrotation Yrotation Zrotation
								End Site
								{
									OFFSET 0.000000 8.688499 0.000000
								}
							}
						}
						JOINT newVegas:Right_CapeB
						{
							OFFSET -26.118187 -8.608795 -7.079266
							CHANNELS 3 Xrotation Yrotation Zrotation
							JOINT newVegas:Right_CapeB1
							{
								OFFSET 0.000000 -8.688499 0.000000
								CHANNELS 3 Xrotation Yrotation Zrotation
								End Site
								{
									OFFSET 0.000000 8.688499 0.000000
								}
							}
						}
					}
				}
				JOINT newVegas:Left_Collar
				{
					OFFSET 18.625099 8.655502 8.828100
					CHANNELS 3 Xrotation Yrotation Zrotation
					JOINT newVegas:Left_Collar1
					{
						OFFSET 14.783401 10.540405 -1.259500
						CHANNELS 3 Xrotation Yrotation Zrotation
						End Site
						{
							OFFSET 0.000000 18.199875 0.000000
						}
					}
				}
				JOINT newVegas:Collar_Back
				{
					OFFSET 0.000000 15.630707 -20.132601
					CHANNELS 3 Xrotation Yrotation Zrotation
					End Site
					{
						OFFSET 0.000000 22.523010 0.000000
					}
				}
				JOINT newVegas:Left_Peck
				{
					OFFSET 17.239599 -5.132599 25.482599
					CHANNELS 3 Xrotation Yrotation Zrotation
					End Site
					{
						OFFSET 0.000000 22.523010 0.000000
					}
				}
				JOINT newVegas:Right_Peck
				{
					OFFSET -17.239599 -5.132202 25.482599
					CHANNELS 3 Xrotation Yrotation Zrotation
					End Site
					{
						OFFSET 0.000000 22.523010 0.000000
					}
				}
				JOINT newVegas:Right_Collar
				{
					OFFSET -18.625099 8.655792 8.828100
					CHANNELS 3 Xrotation Yrotation Zrotation
					JOINT newVegas:Right_Collar1
					{
						OFFSET -14.783401 10.539993 -1.259500
						CHANNELS 3 Xrotation Yrotation Zrotation
						End Site
						{
							OFFSET 0.000000 18.199631 0.000000
						}
					}
				}
			}
		}
		JOINT newVegas:Belly
		{
			OFFSET 0.000000 -6.540398 9.014299
			CHANNELS 3 Xrotation Yrotation Zrotation
			End Site
			{
				OFFSET 0.000000 11.566666 0.000000
			}
		}
	}
	JOINT newVegas:ElvisFacialAnim_Joint
	{
		OFFSET 1.000000 -95.330101 -8.825800
		CHANNELS 3 Xrotation Yrotation Zrotation
		End Site
		{
			OFFSET 0.000000 35.315800 0.000000
		}
	}
}
MOTION
Frames: 4
Frame Time: 0.033333
3.816725 92.012512 -1.426496 -130.374009 -71.169342 -127.500712 -0.000000 -0.000000 -0.000000 -32.447237 46.800552 35.878570 30.548079 -11.122488 -1.763830 -1.509087 -0.113355 -4.990006 0.000000 -0.000002 0.000000 -0.000000 -0.000003 -0.000000 3.321186 2.358941 -7.420498 42.192018 -5.911772 5.579263 -29.693646 -24.047411 1.820744 -0.000000 0.000000 0.000000 0.000000 -0.000001 0.000000 11.135219 -6.157394 -0.269230 16.926826 -1.730234 -0.333573 16.932544 -1.784579 -0.270247 0.196599 3.313875 -0.016765 0.196582 3.313910 -0.016777 0.000001 -0.000001 0.000000 0.196602 3.313891 -0.016771 0.196680 3.313904 -0.016778 -0.000001 0.000000 -0.000001 0.000001 -0.000001 0.000001 -37.560655 -6.664692 -0.934254 -38.801444 -1.344249 -57.462552 0.000040 -72.767900 0.000057 -121.649699 1.491623 34.362815 4.709225 9.560385 3.111993 18.987521 -1.930496 8.190518 0.000001 -0.000003 -0.000001 -0.166835 4.064252 -37.759284 2.947125 5.081743 -60.200850 0.000002 0.000000 -0.000001 0.591437 5.690170 -53.285386 3.392912 5.311281 -65.119843 -0.000001 0.000002 -0.000004 -0.014071 5.811275 -61.644301 3.942944 5.532198 -70.936002 -0.000001 -0.000001 -0.000001 -6.292691 4.738990 -72.947909 3.307151 5.270819 -64.189892 0.000000 -0.000007 -0.000001 0.000000 0.000001 0.000001 0.000000 0.000001 0.000001 -0.000000 0.000001 0.000002 -0.000001 0.000003 0.000000 -0.000001 0.000002 -0.000000 -0.000001 0.000003 0.000000 -0.000001 0.000001 0.000000 -41.628763 -10.412638 -11.241606 -55.957848 61.800549 108.847343 -0.000938 99.901427 0.000909 -51.376123 -18.353666 -33.125089 9.017016 -5.884267 11.116999 21.978012 -17.556393 -18.423132 -0.000000 0.000002 -0.000002 -0.997489 1.617372 13.450697 0.750712 -2.537469 32.956790 -0.000000 0.000000 -0.000003 3.347125 -7.099315 52.489768 6.301554 -4.357769 110.697381 0.000000 -0.000000 -0.000000 -3.370269 -2.666514 57.590181 5.348092 -4.605725 98.541004 -0.000000 -0.000001 -0.000000 -4.234079 -3.271003 65.135307 4.067289 -4.619733 82.715606 0.000000 0.000002 -0.000000 -0.000001 0.000003 0.000002 -0.000001 0.000000 0.000000 -0.000001 0.000002 0.000003 0.000005 0.000000 -0.000000 0.000005 0.000001 -0.000000 0.000005 0.000000 -0.000000 0.000005 0.000001 -0.000000 0.000001 0.000002 -0.000000 0.000001 0.000002 -0.000000 0.000001 0.000002 -0.000000 0.000001 0.000002 -0.000000 0.000001 0.000002 -0.000000 0.000001 0.000002 -0.000000 0.000001 0.000002 -0.000000 0.000000 -0.000000 0.000000 -0.000000 -0.000000 -0.000000 
2.696455 91.914551 -1.450866 -134.887316 -69.495003 -132.250877 -0.000000 0.000000 0.000000 -29.237987 44.629429 32.327801 30.281145 -10.269219 -1.261127 -3.300395 0.914936 -5.674061 -0.000001 -0.000002 0.000000 0.000000 0.000000 0.000000 3.693122 2.133351 -7.896920 42.288491 -5.531187 4.520800 -29.655790 -22.309247 2.997867 0.000000 0.000002 0.000000 0.000000 0.000003 -0.000002 11.121184 -5.631220 0.011554 17.006553 -1.595590 -0.353978 17.010190 -1.652162 -0.294152 0.207268 3.302324 0.007858 0.207254 3.302335 0.007853 -0.000003 -0.000001 0.000001 0.207342 3.302314 0.007860 0.207181 3.302351 0.007853 -0.000002 0.000000 -0.000000 -0.000003 -0.000001 0.000001 -37.556488 -6.529808 -0.793368 -38.871426 -1.447668 -57.628539 -0.000053 -72.858106 -0.000036 -121.812339 1.337540 34.253050 4.709223 9.560382 3.111993 19.003946 -1.900304 8.180491 -0.000002 -0.000000 -0.000001 -0.134266 4.096705 -37.612957 2.947579 5.082008 -60.205987 -0.000004 -0.000002 0.000000 0.625643 5.715098 -53.274980 3.394596 5.312056 -65.137991 0.000000 -0.000001 0.000001 -0.130779 5.736858 -61.486401 3.951257 5.535041 -71.022274 0.000000 -0.000004 -0.000001 -6.416046 4.687566 -72.884143 3.310570 5.272463 -64.227062 -0.000002 -0.000003 -0.000001 -0.000001 0.000001 -0.000001 -0.000001 0.000001 -0.000001 -0.000002 0.000001 -0.000001 -0.000000 -0.000001 0.000001 -0.000000 -0.000002 0.000001 -0.000000 -0.000001 0.000001 -0.000000 -0.000002 0.000001 -41.616141 -10.209530 -11.184338 -55.652347 61.872006 108.204273 0.000593 100.173282 -0.000561 -51.463768 -18.419502 -33.377806 8.995869 -5.851848 11.113705 21.976653 -17.561352 -18.424977 0.000001 0.000000 -0.000002 -1.005454 1.706461 13.314949 0.751074 -2.538040 32.965256 0.000001 0.000000 0.000002 3.311758 -7.072751 52.479513 6.302936 -4.357256 110.715563 0.000000 0.000000 -0.000000 -3.268119 -2.709894 57.426824 5.354869 -4.604712 98.625398 0.000000 0.000002 -0.000000 -4.117238 -3.315152 65.064006 4.069468 -4.619995 82.742715 -0.000000 0.000002 0.000000 -0.000001 -0.000004 -0.000000 -0.000001 -0.000001 0.000003 -0.000001 -0.000005 0.000001 -0.000003 0.000003 -0.000003 -0.000003 0.000003 -0.000003 -0.000003 0.000003 -0.000003 -0.000003 0.000003 -0.000002 -0.000003 0.000000 -0.000001 -0.000003 0.000000 -0.000001 -0.000003 0.000000 -0.000001 -0.000003 0.000000 -0.000001 -0.000003 0.000000 -0.000001 -0.000003 0.000000 -0.000001 -0.000003 0.000000 -0.000001 0.000000 0.000000 -0.000000 -0.000000 0.000000 0.000000 
1.605801 91.745331 -1.464462 -138.984733 -67.404459 -136.721167 -0.000000 -0.000002 0.000000 -27.750096 43.253771 30.852538 32.049262 -9.396858 -0.949387 -5.937251 1.167284 -4.387861 -0.000000 -0.000001 -0.000000 -0.000000 0.000001 0.000000 3.865802 2.103906 -8.360798 42.697507 -5.307273 3.411770 -29.625502 -20.284233 4.368639 -0.000000 0.000000 0.000000 0.000001 0.000000 -0.000000 11.079756 -4.940110 0.235343 17.072565 -1.418539 -0.400845 17.074351 -1.477785 -0.344219 0.229087 3.289273 0.033671 0.229093 3.289273 0.033669 0.000000 0.000000 -0.000003 0.229085 3.289274 0.033669 0.229081 3.289266 0.033667 0.000001 0.000000 -0.000000 0.000000 0.000000 -0.000001 -37.563110 -6.427671 -0.399286 -38.875914 -1.068151 -57.792519 -0.000046 -72.921251 -0.000063 -121.811820 1.192003 34.210249 4.709222 9.560387 3.111993 19.313799 -1.101008 8.041502 -0.000001 -0.000004 -0.000001 -0.098830 4.134429 -37.483566 2.949986 5.083367 -60.233123 -0.000000 -0.000000 0.000000 0.647770 5.730250 -53.247847 3.394149 5.311828 -65.133189 0.000000 -0.000001 -0.000001 -0.187311 5.695340 -61.340556 3.968082 5.540776 -71.196512 -0.000002 -0.000001 0.000001 -6.543622 4.632032 -72.808662 3.312997 5.273632 -64.253509 0.000001 -0.000005 0.000001 0.000001 0.000000 -0.000000 0.000001 0.000000 -0.000000 0.000001 0.000000 0.000000 0.000001 -0.000002 -0.000000 0.000001 -0.000003 -0.000000 0.000001 -0.000002 -0.000000 -0.000000 -0.000003 -0.000000 -41.570044 -9.854664 -11.029916 -55.605304 61.777996 107.783793 -0.001245 100.038564 0.001224 -51.658227 -18.475880 -33.172129 8.594255 -5.235297 11.053636 22.122790 -17.455827 -18.545558 0.000001 -0.000004 -0.000001 -1.015516 1.799050 13.196840 0.752481 -2.540196 32.996804 -0.000000 0.000001 0.000001 3.285952 -7.054143 52.452373 6.302599 -4.357393 110.710850 0.000001 0.000000 0.000000 -3.223054 -2.719121 57.279069 5.368795 -4.602592 98.798666 -0.000001 0.000002 -0.000000 -3.996979 -3.359515 64.980610 4.070752 -4.620159 82.758691 0.000000 0.000002 -0.000000 0.000004 0.000003 0.000002 -0.000001 -0.000003 0.000000 0.000004 0.000003 0.000001 0.000003 -0.000001 0.000001 0.000003 0.000000 0.000001 0.000003 -0.000001 0.000001 0.000003 0.000000 0.000002 0.000001 0.000001 -0.000001 0.000001 0.000001 -0.000001 0.000001 0.000001 -0.000001 0.000001 0.000001 -0.000001 0.000001 0.000001 -0.000001 0.000001 0.000001 -0.000001 0.000001 0.000001 -0.000001 0.000001 -0.000000 -0.000000 -0.000000 -0.000002 0.000000 
0.553247 91.492699 -1.459404 -142.377342 -65.143544 -140.630959 0.000001 0.000001 0.000000 -26.517434 42.138453 29.917178 33.465109 -7.862475 -0.705834 -7.319492 1.245525 -2.872638 -0.000001 -0.000001 -0.000000 -0.000000 0.000001 -0.000000 3.860014 2.263691 -8.750200 43.322046 -4.977763 2.388972 -29.723286 -18.381449 5.649533 0.000000 0.000000 -0.000000 -0.000003 -0.000001 0.000000 10.896317 -4.105351 0.531786 17.129957 -1.205889 -0.480445 17.130488 -1.266207 -0.429337 0.260501 3.259018 0.085930 0.260503 3.259008 0.085933 -0.000000 0.000001 -0.000001 0.260491 3.259030 0.085927 0.260575 3.259011 0.085923 -0.000001 0.000000 -0.000000 -0.000000 0.000001 -0.000000 -37.572758 -6.332437 0.042348 -38.767515 -0.776794 -57.837694 0.000161 -72.745661 0.000148 -121.873961 0.889219 34.209856 4.709225 9.560382 3.111992 19.752173 -0.071072 7.855920 -0.000001 0.000001 -0.000003 -0.056920 4.201000 -37.671871 2.934365 5.074446 -60.056720 -0.000003 -0.000002 0.000000 0.700822 5.785741 -53.590282 3.393773 5.311674 -65.129207 -0.000002 0.000001 -0.000002 -0.109214 5.743991 -61.424076 3.980932 5.545118 -71.329585 -0.000001 -0.000002 -0.000000 -6.552662 4.659994 -72.956543 3.316413 5.275270 -64.290686 -0.000001 -0.000005 0.000004 -0.000001 0.000003 -0.000000 -0.000001 0.000003 -0.000000 -0.000002 0.000003 0.000000 0.000000 0.000001 0.000000 0.000000 0.000000 -0.000000 0.000000 0.000001 0.000000 0.000000 -0.000000 0.000000 -41.515662 -9.454980 -10.848729 -55.504207 61.388320 107.433330 -0.001240 99.631423 0.001209 -52.021005 -18.746137 -32.568333 8.038676 -4.379113 10.977524 22.266094 -17.364130 -18.671410 0.000002 -0.000002 -0.000001 -1.046484 1.852805 13.395001 0.744871 -2.528485 32.825175 0.000000 -0.000000 -0.000002 3.282235 -7.038038 52.797229 6.302294 -4.357501 110.706978 -0.000000 -0.000000 -0.000000 -3.292848 -2.685772 57.366588 5.379559 -4.600914 98.932845 0.000000 0.000001 -0.000000 -3.979699 -3.389009 65.129276 4.073651 -4.620535 82.794652 0.000000 0.000002 -0.000000 0.000003 0.000002 -0.000001 0.000002 -0.000001 -0.000002 0.000003 0.000002 -0.000000 0.000002 -0.000003 0.000002 0.000002 -0.000002 0.000004 0.000002 -0.000003 0.000002 0.000002 -0.000002 0.000005 0.000002 0.000001 -0.000000 0.000002 0.000001 -0.000000 0.000002 0.000001 -0.000000 0.000002 0.000001 -0.000000 0.000002 0.000001 -0.000000 0.000002 0.000001 -0.000000 0.000002 0.000001 -0.000000 0.000000 -0.000001 0.000000 0.000001 0.000001 0.000000 
